<svg id="Capa_1" enable-background="new 0 0 512 512" height="512" viewBox="0 0 512 512" width="512" xmlns="http://www.w3.org/2000/svg"><g><path d="m414.5 23.5h-317c-53.762 0-97.5 43.738-97.5 97.5 0 17.352 4.623 34.397 13.369 49.294l.057-.033c.468.928 158.438 270.034 158.438 270.034 17.464 29.734 49.703 48.205 84.136 48.205 34.437 0 66.674-18.471 84.131-48.206l-.057-.033c.582-.861 158.564-269.969 158.564-269.969 8.742-14.901 13.362-31.946 13.362-49.292 0-53.762-43.738-97.5-97.5-97.5zm71.202 139.2c-1.574 2.681-157.371 268.077-158.507 270-14.775 25.166-42.055 40.8-71.195 40.8-29.137 0-56.421-15.634-71.202-40.8-1.572-2.678-157.044-267.52-158.473-269.964-7.416-12.633-11.325-27.052-11.325-41.736 0-45.491 37.01-82.5 82.5-82.5h317c45.49 0 82.5 37.009 82.5 82.5 0 14.68-3.907 29.101-11.298 41.7z"/><path d="m414.5 53.5h-317c-37.22 0-67.5 30.28-67.5 67.5 0 12.016 3.195 23.81 9.239 34.105l71.652 122.062c2.097 3.572 6.692 4.767 10.265 2.671 3.572-2.097 4.768-6.692 2.671-10.265l-71.652-122.062c-4.694-7.995-7.175-17.162-7.175-26.511 0-28.949 23.552-52.5 52.5-52.5h317c28.948 0 52.5 23.551 52.5 52.5 0 9.348-2.481 18.52-7.174 26.521-1.348 2.294-158.502 269.991-158.502 269.991-9.411 16.03-26.778 25.988-45.324 25.988s-35.917-9.96-45.335-25.995c-.628-1.069-35.051-59.708-71.651-122.06-2.097-3.572-6.693-4.768-10.265-2.671s-4.768 6.692-2.671 10.265c36.602 62.354 71.025 120.995 71.653 122.063 12.1 20.601 34.427 33.398 58.269 33.398 23.843 0 46.167-12.796 58.26-33.395 0 0 157.152-267.694 158.503-269.992 6.043-10.303 9.237-22.099 9.237-34.113 0-37.22-30.28-67.5-67.5-67.5z"/><path d="m250.232 395.806c1.388 1.607 3.413 2.572 5.557 2.646.087.003.174.004.26.004 2.653 0 5.117-1.404 6.467-3.703 0 0 155.187-264.344 158.445-269.896 1.659-2.826 1.291-6.402-.909-8.831-.118-.131-.276-.295-.404-.417-1.396-1.338-3.256-2.085-5.189-2.085l-313.392.026c-5.228.004-6.632.005-8.822 2.162-2.448 2.411-2.944 6.177-1.205 9.14l14.789 25.195c38.984 66.412 144.105 245.413 144.403 245.759zm-139.632-267.262c51.35-.019 239.401-.021 290.815-.021-25.928 44.165-119.929 204.287-145.421 247.71-23.28-39.662-103.881-176.969-137.23-233.781z"/></g></svg>